# xmcd CD database file
#
# Track frame offsets:
#	150
#	15198
#	46354
#	72312
#	87769
#	103929
#	127305
#	145244
#	170910
#	190711
#	210623
#	229967
#
# Disc length: 3157 seconds
#
# Revision: 4
# Processed by: cddbd v1.5.2PL0 Copyright (c) Steve Scherf et al.
# Submitted via: CDex 1.51
#
DISCID=ad0c530c
DTITLE=Indigo Masala - Legends of Panipur
DYEAR=2011
DGENRE=Jazz
TTITLE0=Indigo Masala - Hayy Allah
TTITLE1=Indigo Masala - Bhowani Junction
TTITLE2=Indigo Masala - Migratoy Birds
TTITLE3=Indigo Masala - Amrityam
TTITLE4=Indigo Masala - Karipap
TTITLE5=Indigo Masala - Andalucia
TTITLE6=Indigo Masala - Soufflé Révant
TTITLE7=Indigo Masala - Lost in Migration
TTITLE8=Indigo Masala - Mad Squid
TTITLE9=Indigo Masala - Heaven can wait
TTITLE10=Indigo Masala - Centopeia
TTITLE11=Indigo Masala - Asia Imbiss
EXTD=YEAR: 2011
EXTT0=
EXTT1=
EXTT2=
EXTT3=
EXTT4=
EXTT5=
EXTT6=
EXTT7=
EXTT8=
EXTT9=
EXTT10=
EXTT11=
PLAYORDER=
